:SAMPLES-PER-SECOND 30
:FULLY-SPECIFIED
:DEGREES
809
root  -44.4651 40.9943 -2.42076 -71.6781 -89.4715 72.7719
RightUpLeg  -11.4139 -12.5254 -1.79814
RightLeg  11.828 -10.0958 1.98246
RightFoot  -0.435159 0.456117 -4.80335
RightToes  2.91037e-010 0 -3.6325e-017
Spine  43.1039 -2.01661 6.42837
Spine1  6.0323 1.85815 -5.31604
HEad  -39.0029 -5.36138 -1.47965
LeftShoulder1  9.05839 -18.8392 -34.4413
LeftArm  -23.7243 -5.96636 -8.29698
LeftForeArm  22.0301 -1.25273 -0.71933
LeftHand  -0.244104 0.0205437 5.32207
RightShoulder  5.32402 11.9737 28.3839
RightArm  -20.0614 -3.56589 21.275
RightForeArm  2.1088 2.68627 3.22208
RightHand  -3.37901 10.2582 -25.0226
LeftUpLeg  -11.2036 14.0063 2.69053
LeftLeg  11.086 12.3371 -1.19942
LeftFoot  -0.282408 -0.0947806 0.996992
LeftToes  -1.10052e-010 1.3781e-010 -2.1811e-011
810
root  -44.9039 41.1009 -2.42072 -84.0018 -89.4534 83.8509
RightUpLeg  -8.6862 -11.1202 -2.47675
RightLeg  10.7015 -11.2822 2.30948
RightFoot  -0.758767 0.419786 -4.58238
RightToes  2.91037e-010 0 -3.6325e-017
Spine  39.7236 -1.63636 5.36303
Spine1  5.17775 1.26386 -4.13672
HEad  -35.7251 -3.55937 -2.47765
LeftShoulder1  8.14763 -16.9578 -33.7496
LeftArm  -23.3187 -0.696542 -5.5119
LeftForeArm  19.7418 -2.4945 -0.479658
LeftHand  -0.244104 0.0205437 5.32207
RightShoulder  4.68263 10.5158 27.3633
RightArm  -20.6183 -7.23658 17.2605
RightForeArm  -1.15992 3.23886 3.0313
RightHand  -3.37553 9.96716 -25.4407
LeftUpLeg  -8.34135 12.3502 3.50717
LeftLeg  9.83328 14.0143 -1.72309
LeftFoot  -0.571353 -0.0581028 0.653522
LeftToes  -1.10052e-010 1.3781e-010 -2.1811e-011
811
root  -45.3671 41.1743 -2.39649 -111.257 -88.9035 110.87
RightUpLeg  -7.47094 -10.5883 -3.28239
RightLeg  10.2917 -11.2319 2.51621
RightFoot  -1.29248 0.372999 -4.33611
RightToes  2.91037e-010 0 -3.6325e-017
Spine  35.3239 -1.04053 3.675
Spine1  4.36933 0.689006 -2.69142
HEad  -32.0964 -1.64184 -3.60437
LeftShoulder1  7.10526 -14.9943 -32.3564
LeftArm  -22.9661 4.09698 -3.13322
LeftForeArm  17.3455 -3.98364 -0.24053
LeftHand  -0.244104 0.0205437 5.32207
RightShoulder  4.00315 9.18649 25.4459
RightArm  -21.2474 -9.69841 13.4132
RightForeArm  -5.58765 3.65503 2.92385
RightHand  -3.14208 9.03132 -25.2233
LeftUpLeg  -6.52429 10.5679 3.41908
LeftLeg  8.4596 16.1703 -2.20641
LeftFoot  -0.758433 -0.0373147 0.452388
LeftToes  -1.10052e-010 1.3781e-010 -2.1811e-011
812
root  -45.8277 41.2219 -2.35617 -117.684 -88.0129 117.596
RightUpLeg  -7.15637 -10.6326 -4.19757
RightLeg  10.4573 -10.5598 2.59741
RightFoot  -2.0142 0.318838 -4.07158
RightToes  2.91037e-010 0 -3.6325e-017
Spine  30.3223 -0.455367 1.90903
Spine1  3.86273 0.310523 -1.41187
HEad  -28.4696 -0.00839292 -4.59688
LeftShoulder1  5.97745 -13.1894 -29.7469
LeftArm  -23.2263 8.10778 -1.8303
LeftForeArm  15.8792 -5.37481 0.2137
LeftHand  -0.244104 0.0205437 5.32207
RightShoulder  3.34504 7.8959 23.1362
RightArm  -21.6237 -11.2986 9.73538
RightForeArm  -10.1742 4.59777 3.04235
RightHand  -3.00762 8.55473 -24.9782
LeftUpLeg  -5.34872 8.81196 2.78469
LeftLeg  7.06338 18.4068 -2.6234
LeftFoot  -0.87081 -0.0290334 0.377682
LeftToes  -1.10052e-010 1.3781e-010 -2.1811e-011
813
root  -46.2659 41.2661 -2.31071 -124.184 -87.4866 123.938
RightUpLeg  -6.19836 -10.3936 -4.77067
RightLeg  10.2478 -10.2399 2.70793
RightFoot  -2.5003 0.280947 -3.85042
RightToes  2.91037e-010 0 -3.6325e-017
Spine  26.021 -0.206983 1.03123
Spine1  3.54147 0.192714 -0.927462
HEad  -25.2488 1.26738 -5.22635
LeftShoulder1  4.84298 -11.5915 -25.9065
LeftArm  -23.8402 11.1983 -1.56281
LeftForeArm  17.398 -6.52439 0.779045
LeftHand  -0.244104 0.0205437 5.32207
RightShoulder  2.66545 6.51318 20.2109
RightArm  -22.0123 -11.9182 7.01867
RightForeArm  -12.7924 5.31867 3.09281
RightHand  -2.9298 8.3981 -24.6229
LeftUpLeg  -3.9159 7.69286 2.52184
LeftLeg  6.02127 19.902 -2.90892
LeftFoot  -1.05651 -0.029849 0.424902
LeftToes  -1.10052e-010 1.3781e-010 -2.1811e-011
